<?xml version="1.0" encoding="UTF-8" standalone="no"?>
<svg
   xmlns:dc="http://purl.org/dc/elements/1.1/"
   xmlns:cc="http://creativecommons.org/ns#"
   xmlns:rdf="http://www.w3.org/1999/02/22-rdf-syntax-ns#"
   xmlns:svg="http://www.w3.org/2000/svg"
   xmlns="http://www.w3.org/2000/svg"
   xmlns:sodipodi="http://sodipodi.sourceforge.net/DTD/sodipodi-0.dtd"
   xmlns:inkscape="http://www.inkscape.org/namespaces/inkscape"
   width="76.418709"
   height="28.0142"
   viewBox="0 0 76.418709 28.0142"
   fill="none"
   version="1.1"
   id="svg136"
   sodipodi:docname="freeride.svg"
   inkscape:version="1.0.1 (3bc2e813f5, 2020-09-07)">
  <metadata
     id="metadata142">
    <rdf:RDF>
      <cc:Work
         rdf:about="">
        <dc:format>image/svg+xml</dc:format>
        <dc:type
           rdf:resource="http://purl.org/dc/dcmitype/StillImage" />
        <dc:title></dc:title>
      </cc:Work>
    </rdf:RDF>
  </metadata>
  <defs
     id="defs140" />
  <sodipodi:namedview
     pagecolor="#ffffff"
     bordercolor="#666666"
     borderopacity="1"
     objecttolerance="10"
     gridtolerance="10"
     guidetolerance="10"
     inkscape:pageopacity="0"
     inkscape:pageshadow="2"
     inkscape:window-width="1900"
     inkscape:window-height="998"
     id="namedview138"
     showgrid="false"
     inkscape:zoom="1.9284526"
     inkscape:cx="60.163784"
     inkscape:cy="44.003971"
     inkscape:window-x="10"
     inkscape:window-y="44"
     inkscape:window-maximized="1"
     inkscape:current-layer="svg136"
     inkscape:lockguides="false"
     fit-margin-top="0"
     fit-margin-left="0"
     fit-margin-right="0"
     fit-margin-bottom="0" />
  <path
     d="m 73.48971,22.1164 c -6.684,0 -12.516,-4.5466 -14.183,-11.0567 -0.34,-1.329 -1.527,-2.2067 -2.83,-2.2097 -0.022,-5e-4 -0.045,-0.0034 -0.068,-0.0034 h -9.273 c -1.617,0 -2.928,1.3206 -2.928,2.9488 v 10.321 h -2.929 V 7.3726 c 0,-5e-4 0,-5e-4 0,-9e-4 v -1.474 h 5.857 c 1.617,0 2.928,-1.32058 2.928,-2.94884 C 50.06371,1.3206 48.75271,0 47.13571,0 H 3.2117104 c -0.04,0 -0.08,0.00442 -0.121,0.00639 -0.49,-0.02801 -0.994,0.06586 -1.465,0.30177 C 0.17771038,1.03259 -0.41328962,2.8024 0.30671038,4.26111 7.5347104,18.912 22.11271,28.0142 38.35071,28.0142 h 8.785 c 1.617,0 2.928,-1.3206 2.928,-2.9489 v -10.321 h 4.276 c 3,7.9157 10.572,13.2699 19.15,13.2699 1.617,0 2.929,-1.3206 2.929,-2.9489 0,-1.6283 -1.312,-2.9489 -2.929,-2.9489 z m -38.067,-15.9651 -7.321,7.3722 V 5.8977 h 7.321 z m 0,8.3394 v 7.5102 c -2.179,-0.1725 -4.312,-0.5396 -6.384,-1.0817 z M 8.0117104,5.8977 H 22.24571 V 18.392 C 16.55671,15.597 11.63771,11.3261 8.0117104,5.8977 Z"
     fill="#454545"
     id="path122" />
</svg>
