<?xml version="1.0" encoding="UTF-8" standalone="no"?>
<svg
   xmlns:dc="http://purl.org/dc/elements/1.1/"
   xmlns:cc="http://creativecommons.org/ns#"
   xmlns:rdf="http://www.w3.org/1999/02/22-rdf-syntax-ns#"
   xmlns:svg="http://www.w3.org/2000/svg"
   xmlns="http://www.w3.org/2000/svg"
   xmlns:sodipodi="http://sodipodi.sourceforge.net/DTD/sodipodi-0.dtd"
   xmlns:inkscape="http://www.inkscape.org/namespaces/inkscape"
   width="76.037003"
   height="19.167601"
   viewBox="0 0 76.037003 19.167601"
   fill="none"
   version="1.1"
   id="svg136"
   sodipodi:docname="flow.svg"
   inkscape:version="1.0.1 (3bc2e813f5, 2020-09-07)">
  <metadata
     id="metadata142">
    <rdf:RDF>
      <cc:Work
         rdf:about="">
        <dc:format>image/svg+xml</dc:format>
        <dc:type
           rdf:resource="http://purl.org/dc/dcmitype/StillImage" />
        <dc:title></dc:title>
      </cc:Work>
    </rdf:RDF>
  </metadata>
  <defs
     id="defs140" />
  <sodipodi:namedview
     pagecolor="#ffffff"
     bordercolor="#666666"
     borderopacity="1"
     objecttolerance="10"
     gridtolerance="10"
     guidetolerance="10"
     inkscape:pageopacity="0"
     inkscape:pageshadow="2"
     inkscape:window-width="1900"
     inkscape:window-height="998"
     id="namedview138"
     showgrid="false"
     inkscape:zoom="0.68181095"
     inkscape:cx="-810.1524"
     inkscape:cy="112.05628"
     inkscape:window-x="10"
     inkscape:window-y="44"
     inkscape:window-maximized="1"
     inkscape:current-layer="svg136"
     inkscape:lockguides="false"
     fit-margin-top="0"
     fit-margin-left="0"
     fit-margin-right="0"
     fit-margin-bottom="0" />
  <path
     d="M 51.049,9.1375 C 50.034,8.6466 48.83,8.7842 47.951,9.4929 c -3.199,2.5773 -6.308,3.777 -9.786,3.777 -0.016,0 -0.032,0.0019 -0.049,0.0024 -0.016,-5e-4 -0.032,-0.0024 -0.049,-0.0024 -0.118,0 -0.236,-0.003 -0.351,-0.0098 -0.02,-0.0015 -0.04,-0.0025 -0.06,-0.003 C 32.14,13.0453 27.819,8.5173 27.819,2.9489 27.819,1.3206 26.507,0 24.89,0 H 11.713 C 10.096,0 8.785,1.3206 8.785,2.9489 8.785,6.201 6.158,8.8466 2.928,8.8466 1.312,8.8466 0,10.1672 0,11.7954 c 0,1.6283 1.312,2.9489 2.928,2.9489 5.448,0 10.039,-3.7647 11.343,-8.8466 h 7.958 c 1.325,7.3417 7.512,12.9441 15.176,13.2517 0.217,0.0123 0.439,0.0182 0.662,0.0182 0.017,0 0.033,-0.002 0.049,-0.0025 0.017,5e-4 0.033,0.0025 0.05,0.0025 3.087,0 6.005,-0.6831 8.818,-2.0735 0.37,1.2006 1.482,2.0735 2.797,2.0735 1.616,0 2.928,-1.3206 2.928,-2.9489 v -4.4233 c 0,-1.1338 -0.645,-2.1664 -1.66,-2.6579 z"
     fill="#454545"
     id="path130" />
  <path
     d="m 73.109,13.2698 c -3.478,0 -6.587,-1.1996 -9.786,-3.7774 C 62.444,8.7846 61.24,8.6465 60.225,9.137 c -1.014,0.4915 -1.66,1.5246 -1.66,2.6579 v 4.4233 c 0,1.6283 1.312,2.9489 2.929,2.9489 1.314,0 2.427,-0.8724 2.797,-2.0736 2.813,1.3909 5.73,2.0741 8.818,2.0741 1.617,0 2.928,-1.3206 2.928,-2.9489 0,-1.6283 -1.311,-2.9489 -2.928,-2.9489 z"
     fill="#454545"
     id="path132" />
</svg>
