<?xml version="1.0" encoding="UTF-8" standalone="no"?>
<svg
   xmlns:dc="http://purl.org/dc/elements/1.1/"
   xmlns:cc="http://creativecommons.org/ns#"
   xmlns:rdf="http://www.w3.org/1999/02/22-rdf-syntax-ns#"
   xmlns:svg="http://www.w3.org/2000/svg"
   xmlns="http://www.w3.org/2000/svg"
   xmlns:sodipodi="http://sodipodi.sourceforge.net/DTD/sodipodi-0.dtd"
   xmlns:inkscape="http://www.inkscape.org/namespaces/inkscape"
   width="76.134697"
   height="23.5914"
   viewBox="0 0 76.134697 23.5914"
   fill="none"
   version="1.1"
   id="svg136"
   sodipodi:docname="tech.svg"
   inkscape:version="1.0.1 (3bc2e813f5, 2020-09-07)">
  <metadata
     id="metadata142">
    <rdf:RDF>
      <cc:Work
         rdf:about="">
        <dc:format>image/svg+xml</dc:format>
        <dc:type
           rdf:resource="http://purl.org/dc/dcmitype/StillImage" />
        <dc:title></dc:title>
      </cc:Work>
    </rdf:RDF>
  </metadata>
  <defs
     id="defs140" />
  <sodipodi:namedview
     pagecolor="#ffffff"
     bordercolor="#666666"
     borderopacity="1"
     objecttolerance="10"
     gridtolerance="10"
     guidetolerance="10"
     inkscape:pageopacity="0"
     inkscape:pageshadow="2"
     inkscape:window-width="1900"
     inkscape:window-height="998"
     id="namedview138"
     showgrid="false"
     inkscape:zoom="1.9284526"
     inkscape:cx="215.24339"
     inkscape:cy="49.003971"
     inkscape:window-x="10"
     inkscape:window-y="44"
     inkscape:window-maximized="1"
     inkscape:current-layer="svg136"
     inkscape:lockguides="false"
     fit-margin-top="0"
     fit-margin-left="0"
     fit-margin-right="0"
     fit-margin-bottom="0" />
  <path
     d="m 73.2064,13.2699 h -4.3923 c -0.7765,0 -1.5213,0.3111 -2.0703,0.864 l -2.9,2.9199 -6.4719,-3.259 -4.0566,-4.0847 c -1.1435,-1.152 -2.9981,-1.152 -4.1411,0 l -2.3221,2.3385 -2.3216,-2.338 C 44.308,9.486 44.0512,9.2997 43.7692,9.1577 L 34.9844,4.7344 C 34.5778,4.5299 34.1298,4.4233 33.675,4.4233 H 25.5817 L 17.4153,0.3111 C 16.2875,-0.2561 14.9263,-0.0334 14.0351,0.864 L 11.713,3.202 9.39141,0.864 C 8.84236,0.3111 8.09712,0 7.32064,0 H 2.92826 C 1.31137,0 0,1.3206 0,2.9489 0,4.5771 1.31137,5.8977 2.92826,5.8977 h 3.1796 L 9.64275,9.457 c 1.14345,1.152 2.99805,1.152 4.14105,0 l 2.8999,-2.9199 6.8971,3.4728 c 0.4065,0.2045 0.8545,0.3111 1.3094,0.3111 h 8.0932 l 7.7413,3.8984 4.0567,4.0847 c 1.1434,1.152 2.998,1.152 4.141,0 l 2.3216,-2.338 2.3216,2.338 c 0.2226,0.2241 0.4793,0.4109 0.7614,0.5524 l 8.7848,4.4233 c 0.4163,0.2099 0.8643,0.3116 1.3089,0.3116 0.7599,0 1.5095,-0.2973 2.0712,-0.864 l 3.5349,-3.5593 h 3.1796 c 1.6169,0 2.9283,-1.3206 2.9283,-2.9489 0,-1.6282 -1.3114,-2.9493 -2.9283,-2.9493 z"
     fill="#4B70CE"
     id="path114"
     style="fill:#454545;fill-opacity:1" />
</svg>
